<?xml version="1.0" standalone="no"?>
<!DOCTYPE svg PUBLIC "-//W3C//DTD SVG 1.1//EN" "http://www.w3.org/Graphics/SVG/1.1/DTD/svg11.dtd">
<svg xmlns="http://www.w3.org/2000/svg" id="Layer_1" version="1.1" viewBox="0 0 1920 226" width="1920" height="226">
  <!-- Generator: Adobe Illustrator 30.2.1, SVG Export Plug-In . SVG Version: 2.1.1 Build 1)  -->
  <defs>
    <style>
      .st0 {
        fill: #00225a;
      }
    </style>
  </defs>
  <polygon class="st0" points="11 65 42.5 65 42.5 213.7 94.2 213.7 94.2 65 125.6 65 125.6 13.3 11 13.3 11 65"/>
  <polygon class="st0" points="137.1 213.7 243.2 213.7 243.2 168.5 188.8 168.5 188.8 136.1 232.3 136.1 232.3 90.9 188.8 90.9 188.8 58.5 243.2 58.5 243.2 13.3 137.1 13.3 137.1 213.7"/>
  <path class="st0" d="M287.9,13.3l-39.7,200.5h52.6l1.5-17h20.3l1.5,17h52.6L337,13.3h-49.1ZM306.1,152l5.9-71.7h.9l6.2,71.7h-12.9Z"/>
  <path class="st0" d="M457.8,10.6h-42.3c-20,0-36.2,16.5-36.2,36.4v132.9c0,20,16.2,36.5,36.2,36.5h42.3c20,0,36.5-16.5,36.5-36.5v-38.5h-52v26.2c0,2.1-1.5,3.5-3.2,3.5h-4.7c-1.8,0-3.2-1.5-3.2-3.5V59.1c0-1.8,1.5-3.2,3.2-3.2h4.7c1.8,0,3.2,1.5,3.2,3.2v25.9h52v-37.9c0-20-16.5-36.4-36.5-36.4Z"/>
  <polygon class="st0" points="570.1 90.9 557.4 90.9 557.4 13.3 505.7 13.3 505.7 213.7 557.4 213.7 557.4 136.1 570.1 136.1 570.1 213.7 621.8 213.7 621.8 13.3 570.1 13.3 570.1 90.9"/>
  <polygon class="st0" points="662.7 213.7 714.4 213.7 714.4 144.7 751.4 144.7 751.4 99.4 714.4 99.4 714.4 58.5 762.3 58.5 762.3 13.3 662.7 13.3 662.7 213.7"/>
  <path class="st0" d="M852.3,10.6h-42.3c-20,0-36.2,16.5-36.2,36.4v132.9c0,20,16.2,36.5,36.2,36.5h42.3c20,0,36.5-16.5,36.5-36.5V47.1c0-20-16.5-36.4-36.5-36.4ZM836.7,167.6c0,2.1-1.5,3.5-3.2,3.5h-4.7c-1.8,0-3.2-1.5-3.2-3.5V59.1c0-1.8,1.5-3.2,3.2-3.2h4.7c1.8,0,3.2,1.5,3.2,3.2v108.5Z"/>
  <path class="st0" d="M978.7,13.3h-78.5v200.5h51.7v-60.3c0-2.1,1.5-3.5,3.2-3.5h4.7c1.8,0,3.2,1.5,3.2,3.5v60.3h52v-59.1c0-21.5-1.2-24.7-17.6-27.3v-1.2c16.5-2.6,17.6-5.9,17.6-27.3v-49.4c0-20-16.5-36.2-36.5-36.2ZM963.1,108.5c0,1.8-1.5,3.2-3.2,3.2h-7.9v-53.2h7.9c1.8,0,3.2,1.5,3.2,3.2v46.7Z"/>
  <path class="st0" d="M1087.4,13.3l-39.7,200.5h52.6l1.5-17h20.3l1.5,17h52.6l-39.7-200.5h-49.1ZM1105.6,152l5.9-71.7h.9l6.2,71.7h-12.9Z"/>
  <polygon class="st0" points="1262.3 112.3 1261.4 112.3 1247.6 13.3 1180.3 13.3 1180.3 213.7 1232 213.7 1232 91.2 1232.9 91.2 1245 213.7 1278.8 213.7 1290.8 91.2 1291.7 91.2 1291.7 213.7 1343.4 213.7 1343.4 13.3 1276.1 13.3 1262.3 112.3"/>
  <polygon class="st0" points="1354.9 213.7 1461 213.7 1461 168.5 1406.7 168.5 1406.7 136.1 1450.2 136.1 1450.2 90.9 1406.7 90.9 1406.7 58.5 1461 58.5 1461 13.3 1354.9 13.3 1354.9 213.7"/>
  <path class="st0" d="M1551.3,13.3h-78.5v200.5h51.7v-60.3c0-2.1,1.5-3.5,3.2-3.5h4.7c1.8,0,3.2,1.5,3.2,3.5v60.3h52v-59.1c0-21.5-1.2-24.7-17.6-27.3v-1.2c16.5-2.6,17.6-5.9,17.6-27.3v-49.4c0-20-16.5-36.2-36.5-36.2ZM1535.7,108.5c0,1.8-1.5,3.2-3.2,3.2h-7.9v-53.2h7.9c1.8,0,3.2,1.5,3.2,3.2v46.7Z"/>
  <rect class="st0" x="1599.2" y="13.3" width="51.7" height="200.5"/>
  <path class="st0" d="M1740.9,10.6h-42.3c-20,0-36.2,16.5-36.2,36.4v132.9c0,20,16.2,36.5,36.2,36.5h42.3c20,0,36.5-16.5,36.5-36.5v-38.5h-52v26.2c0,2.1-1.5,3.5-3.2,3.5h-4.7c-1.8,0-3.2-1.5-3.2-3.5V59.1c0-1.8,1.5-3.2,3.2-3.2h4.7c1.8,0,3.2,1.5,3.2,3.2v25.9h52v-37.9c0-20-16.5-36.4-36.5-36.4Z"/>
  <path class="st0" d="M1869.3,13.3h-49.1l-39.7,200.5h52.6l1.5-17h20.3l1.5,17h52.6l-39.7-200.5ZM1838.5,152l5.9-71.7h.9l6.2,71.7h-12.9Z"/>
</svg>